{
    "asset" : {
        "generator" : "Khronos glTF Blender I/O v1.8.19",
        "version" : "2.0"
    },
    "scene" : 0,
    "scenes" : [
        {
            "name" : "Scene",
            "nodes" : [
                0
            ]
        }
    ],
    "nodes" : [
        {
            "mesh" : 0,
            "name" : "\u5047\u5c7116"
        }
    ],
    "materials" : [
        {
            "doubleSided" : true,
            "name" : "Mat3d66-4573088-7-8995",
            "pbrMetallicRoughness" : {
                "baseColorTexture" : {
                    "index" : 0
                },
                "metallicFactor" : 0,
                "roughnessFactor" : 0.819208562374115
            }
        }
    ],
    "meshes" : [
        {
            "name" : "\u7f51\u683c.035",
            "primitives" : [
                {
                    "attributes" : {
                        "POSITION" : 0,
                        "NORMAL" : 1,
                        "TEXCOORD_0" : 2
                    },
                    "indices" : 3,
                    "material" : 0
                }
            ]
        }
    ],
    "textures" : [
        {
            "sampler" : 0,
            "source" : 0
        }
    ],
    "images" : [
        {
            "bufferView" : 4,
            "mimeType" : "image/jpeg",
            "name" : "3d66Model-4573088-files-10"
        }
    ],
    "accessors" : [
        {
            "bufferView" : 0,
            "componentType" : 5126,
            "count" : 7282,
            "max" : [
                1.489616870880127,
                1.3412737846374512,
                0.5320072770118713
            ],
            "min" : [
                -1.4896173477172852,
                0,
                -0.5320072770118713
            ],
            "type" : "VEC3"
        },
        {
            "bufferView" : 1,
            "componentType" : 5126,
            "count" : 7282,
            "type" : "VEC3"
        },
        {
            "bufferView" : 2,
            "componentType" : 5126,
            "count" : 7282,
            "type" : "VEC2"
        },
        {
            "bufferView" : 3,
            "componentType" : 5123,
            "count" : 31077,
            "type" : "SCALAR"
        }
    ],
    "bufferViews" : [
        {
            "buffer" : 0,
            "byteLength" : 87384,
            "byteOffset" : 0
        },
        {
            "buffer" : 0,
            "byteLength" : 87384,
            "byteOffset" : 87384
        },
        {
            "buffer" : 0,
            "byteLength" : 58256,
            "byteOffset" : 174768
        },
        {
            "buffer" : 0,
            "byteLength" : 62154,
            "byteOffset" : 233024
        },
        {
            "buffer" : 0,
            "byteLength" : 61345,
            "byteOffset" : 295180
        }
    ],
    "samplers" : [
        {
            "magFilter" : 9729,
            "minFilter" : 9987
        }
    ],
    "buffers" : [
        {
            "byteLength" : 356528,
            "uri" : "data:application/octet-stream;base64,"
        }
    ]
}
